<svg xmlns="http://www.w3.org/2000/svg" width="1240" height="1240"><path d="M620.564 153.129c-3.959 3.114-8.564 9.781-8.564 12.4 0 1.225-4.759 11.395-10.575 22.599-5.816 11.205-12.937 25.322-15.823 31.372-5.4 11.319-6.666 13.028-10.102 13.642-1.232.221-4.544 4.2-8.621 10.358-8.299 12.534-29.061 48.012-37.681 64.39-5.984 11.37-6.635 12.234-7.909 10.5-1.341-1.824-1.455-1.803-3.3.61-3.207 4.197-13.108 22.257-26.333 48.034l-12.588 24.535 8.427 7.465c8.464 7.499 9.932 10.165 7.615 13.823-1.242 1.959-2.309-.214-1.564-3.185.525-2.093-.55-3.405-7.969-9.722-4.717-4.017-8.577-7.659-8.577-8.093 0-.434 3.666-7.442 8.147-15.573 4.482-8.131 12.593-23.674 18.027-34.54 12.801-25.6 14.161-31.498 4.757-20.618-8.545 9.884-15.339 17.377-16.026 17.672-.382.164-4.141 4.488-8.354 9.608-8.175 9.936-11.474 11.96-18.551 11.381-1.925-.158-3.586.074-3.692.514-.105.441-1.567 2.369-3.25 4.285-1.682 1.916-3.058 4.333-3.058 5.372 0 1.039-1.497 3.85-3.327 6.247-1.829 2.397-4.535 6.999-6.013 10.226-1.477 3.227-3.711 6.893-4.964 8.145-1.252 1.253-7.755 11.873-14.451 23.601-10.734 18.799-12.801 21.804-17.46 25.385-2.907 2.235-6.715 4.638-8.463 5.342-1.747.703-3.997 2.189-5 3.302-1.002 1.113-2.759 2.382-3.905 2.821-1.146.438-2.084 1.469-2.084 2.29 0 .833.59 1.266 1.334.981.733-.282 1.333-.014 1.333.595s1.103 1.107 2.45 1.107c1.348 0 2.844.702 3.324 1.561.775 1.384 2.073 1.422 11.477.328 9.258-1.076 11.66-1.019 18.926.447 4.578.923 11.349 2.132 15.048 2.687 3.698.554 7.89 1.45 9.315 1.992 1.425.542 4.109.985 5.966.985 1.857 0 3.654.45 3.994 1 .34.55 2.59 1 5 1s4.66.45 5 1c.34.55 2.646 1 5.125 1 2.478 0 5.331.441 6.339.981 1.317.705 3.482.407 7.685-1.054 13.145-4.572 20.129-5.619 32.351-4.848 52.791 3.329 83.97 3.991 120.5 2.558 20.163-.79 23.044-.686 34.5 1.246 6.875 1.16 13.513 2.111 14.75 2.113 2.649.005 3.016-2.601.782-5.555-2.78-3.675-1.524-3.666 2.553.017 2.541 2.295 4.674 3.465 5.642 3.093.856-.328 12.855-2.598 26.665-5.044 17.915-3.173 26.684-4.302 30.608-3.941 8.98.826 113.682 8.434 116.071 8.434 2.144 0 2.185-.232 1.723-9.75-.552-11.353-1.457-13.521-10.03-24.029-10.324-12.652-18.592-19.066-77.657-60.24-28.982-20.203-36.971-26.243-38.353-29-.96-1.914-10.029-20.356-20.153-40.981-10.125-20.625-19.821-39.684-21.548-42.353-3.583-5.538-2.251-5.438-19.8-1.485l-9.248 2.083-4.453-3.649c-8.101-6.638-9.925-10.298-17.602-35.31-7.32-23.849-13.322-40.096-19.528-52.86-6.398-13.158-11.125-20.123-12.634-18.614-1.235 1.235-1.583 19.997-.476 25.688l.778 4-1.668-4c-2.335-5.599-2.753-10.859-1.553-19.524.57-4.109.684-7.823.255-8.252-.43-.43-2.032.202-3.56 1.405M630.336 230c0 4.125.177 5.813.392 3.75.216-2.062.216-5.437 0-7.5-.215-2.062-.392-.375-.392 3.75m1 17c0 4.125.177 5.813.392 3.75.216-2.062.216-5.437 0-7.5-.215-2.062-.392-.375-.392 3.75m1 17c0 4.125.177 5.813.392 3.75.216-2.062.216-5.437 0-7.5-.215-2.062-.392-.375-.392 3.75m.783 13.5c-.17 9.901 1.758 23.338 3.97 27.675 1.128 2.21 2.226 3.843 2.44 3.629.215-.214-.521-3.296-1.634-6.847-1.113-3.551-2.619-11.857-3.348-18.457-1.052-9.53-1.346-10.765-1.428-6m9.234 43.171c.126 4.837-2.744 9.817-15.962 27.689L617 361.057l.212 11.722.213 11.721.323-10.897.323-10.897 13.496-18.572c12.136-16.7 13.431-18.877 12.85-21.603-1.096-5.142-2.176-6.115-2.064-1.86m-112.294 17.771c-.139 2.223 8.222 14.478 13.115 19.223 6.833 6.625 20.028 17.338 21.326 17.314.55-.01-1.025-1.697-3.499-3.749-16.531-13.706-21.784-19.341-29.692-31.846-.655-1.036-1.218-1.46-1.25-.942m43.581 54.308c6.224 16.617 12.171 37.148 13.945 48.148 1.41 8.735 3.888 15.962 5.07 14.781.279-.279.046-1.37-.518-2.424-.564-1.053-1.93-7.305-3.036-13.891-1.809-10.778-8.416-32.938-13.973-46.864-1.097-2.75-2.53-6.462-3.183-8.25-.653-1.788-1.529-3.25-1.947-3.25-.418 0 1.221 5.288 3.642 11.75m42.572-.25c-.124 4.4-.506 11.15-.848 15-.468 5.28-.336 6.735.537 5.921.8-.746 1.062-5.38.848-15-.177-7.922-.408-10.473-.537-5.921m-123.087 33.55l.125 6.45.806-5.5c.474-3.237.423-5.891-.125-6.45-.576-.588-.883 1.507-.806 5.5m130.776 3.7c2.308 4.455 5.023 8.119 5.067 6.838.035-1.009-5.929-10.588-6.593-10.588-.228 0 .458 1.688 1.526 3.75M493 439.979c0 1.135 15.778 22.021 16.635 22.021.699 0-.205-1.401-7.903-12.249-6.965-9.813-8.732-11.791-8.732-9.772m145 1.874c.825.517 9.839 3.218 20.031 6.003 20.713 5.659 24.976 7.213 29.824 10.874 3.097 2.337 3.268 2.368 2.217.405-1.793-3.351-7.859-5.87-27.911-11.59-19.877-5.671-26.687-7.275-24.161-5.692m-256.545 38.602c-1.35 1.35-2.455 3.422-2.455 4.605 0 3.584 2.692 12.835 8.503 29.227l5.526 15.585-4.526 31.215c-2.489 17.169-5.859 41.23-7.489 53.469-2.832 21.267-2.893 22.49-1.376 27.599 2.633 8.87 7.102 16.796 10.117 17.942 3.859 1.467 7.245-.278 7.245-3.736 0-2.697 2.778-5.749 17.165-18.861 6.733-6.136 7.194-7.715 9.313-31.907l1.565-17.867 10.335-13.613C451.674 552.65 457 544.408 457 540.657c0-5.838-6.941-14.943-33.842-44.392L406.5 478.03l-11.295-.015c-10.67-.014-11.432.121-13.75 2.44m149.195 1.17c-3.135 1.698-3.134 1.28-.043 12.581 1.833 6.701 1.833 6.709-.386 11.277-1.222 2.514-2.219 5.346-2.216 6.294.003 1.167 3.018 3.257 9.34 6.473 5.135 2.612 9.961 4.75 10.725 4.75.763 0 5.079-3.671 9.589-8.159l8.202-8.158-4.371-8.702c-4.94-9.837-8.048-12.924-16.012-15.903-6.54-2.447-10.903-2.58-14.828-.453m-71.117 3.505c-10.956 2.646-12.533 3.822-12.533 9.343 0 4.064.384 4.739 4.679 8.227 11.65 9.461 16.36 17.456 17.113 29.05.458 7.045.572 7.312 4.052 9.463 2.828 1.748 5.482 2.293 12.619 2.591 4.97.207 10.195-.072 11.611-.622 2.028-.787 4.615-5.035 12.19-20.023 10.844-21.456 12.682-26.314 10.809-28.571-1.806-2.176-11.871-5.254-28.152-8.609-16.519-3.403-21.296-3.528-32.388-.849m332.967 6.045c-4.4 3.921-18.474 17.046-31.275 29.167-18.777 17.778-23.028 22.28-22 23.293C742.457 546.821 767.626 563 769.35 563c1.067 0 7.872-3.825 15.122-8.5s13.954-8.5 14.897-8.5c1.888 0 7.186 10.134 8.247 15.772.381 2.027 1.916 4.346 4.033 6.09C815.666 571.174 831.12 580 832.901 580c.676 0 2.733-3.263 4.571-7.25 4.988-10.822 34.426-81.494 35.154-84.394l.63-2.512-13.878.328c-12.872.304-14.257.527-19.11 3.078-2.877 1.512-6.536 2.75-8.13 2.75-1.594 0-9.137-1.8-16.762-4s-14.091-3.99-14.37-3.977c-.278.012-4.106 3.231-8.506 7.152m-202.794.485c-.791 1.562-1.985 4.532-2.653 6.601-.694 2.148-2.659 4.863-4.583 6.33-1.852 1.412-3.878 4.114-4.501 6.003-1.292 3.914-6.153 10.322-15.024 19.806-3.37 3.603-5.974 6.974-5.787 7.492.188.518 4.193 5.817 8.899 11.775 8.402 10.637 10.685 12.579 16.197 13.775 1.814.394 4.786 3.065 8.712 7.828 6.937 8.417 14.152 13.668 19.828 14.429 5.187.696 16.456-1.276 21.24-3.716 3.934-2.007 8.504-7.162 11.448-12.913 1.538-3.006 1.605-4.103.539-8.867-1.339-5.981-6.441-19.151-10.596-27.35l-2.664-5.259 4.247-8.222c4.788-9.27 4.803-11.714.103-16.414-1.982-1.983-4.203-2.97-7.698-3.421-8.354-1.077-17.625-3.558-24.413-6.533-10.371-4.544-11.61-4.67-13.294-1.344m144.428.206c-1.027 1.027-2.662 4.064-3.635 6.75-.972 2.686-3.765 9.834-6.206 15.884-6.168 15.288-6.133 15.014-2.161 17.068 4.787 2.475 14.037 2.484 16.771.015 1.167-1.054 4.79-6.229 8.051-11.5 3.261-5.27 7.98-11.982 10.488-14.915 2.507-2.932 4.558-5.734 4.558-6.227 0-1.513-4.306-3.824-11.999-6.441-8.798-2.992-13.328-3.173-15.867-.634m-58.941 2.882c-1.07 1.514-4.074 7.027-6.677 12.252-5.951 11.95-8.626 15.505-13.558 18.021-2.51 1.281-4.158 2.928-4.569 4.566-.358 1.427.522 8.406 1.984 15.738 3.232 16.202 3.244 19.684.105 31.636-2.899 11.036-2.772 11.344 5.604 13.573 7.579 2.017 12.459 1.872 14.629-.437.984-1.046 3.589-2.385 5.789-2.975 4.177-1.12 4.735-1.8 16.103-19.622 2.105-3.3 6.515-8.62 9.801-11.822l5.974-5.823-.275-24.677c-.151-13.573-.451-24.855-.666-25.072-.216-.217-6.59-1.886-14.165-3.709a4816.908 4816.908 0 01-15.953-3.858c-1.602-.398-2.696.187-4.126 2.209M523 526.524c0 2.287-2.9 7.008-11.042 17.976-8.733 11.764-9.922 14.255-10.638 22.278-.757 8.492-1.617 10.14-10.256 19.651-3.885 4.278-7.064 8.134-7.064 8.569 0 .436 2.567 4.327 5.704 8.647 3.137 4.32 8.425 13.209 11.75 19.752 6.113 12.03 9.712 16.244 12.844 15.042 2.181-.837 11.136-14.193 12.706-18.95.913-2.768.937-5.875.098-12.984-.606-5.14-1.102-9.786-1.102-10.323 0-.538 5.021-4.93 11.157-9.761C552.977 573.967 561 566.254 561 563.499c0-5.329-21.35-32.055-28.237-35.345-6.701-3.201-9.763-3.713-9.763-1.63m-55.247 23.288c-.795.929-3.141 4.287-5.213 7.463s-10.677 12.401-19.123 20.5L428.063 592.5l2.463 11.5c1.355 6.325 2.466 11.693 2.469 11.929.003.235 3.605 3.867 8.005 8.071 5.698 5.443 8.001 8.342 8.004 10.071.004 2.539 3.408 8.946 4.731 8.906.421-.013 3.015-1.26 5.765-2.772 5.764-3.167 5.749-3.084 3.007-16.378-1.687-8.176-1.695-9.189-.141-17.685 2.848-15.566 6.511-21.333 16.301-25.67 6.26-2.773 8.546-5.994 9.114-12.844.665-8.017-1.4-11.829-8.131-15.014-9.505-4.496-10.289-4.681-11.897-2.802m248.585 6.938c-4.484 10.781-7.6 16.784-10.319 19.881-4.656 5.303-4.292 6.111 5.383 11.941l5.098 3.072 6.5-3.072c5.668-2.679 7.589-3.072 15-3.072h8.5l3.367-6.881c4.546-9.291 4.595-12.32.249-15.289-3.581-2.446-26.573-10.33-30.124-10.33-1.476 0-2.555 1.107-3.654 3.75m57.022 15.608c-3.223 2.397-6.859 5.45-8.081 6.784l-2.221 2.425 6.798 7.967c9.335 10.94 9.235 10.872 13.425 9.122 5.727-2.393 12.65-13.492 12.697-20.357.02-2.9-.575-3.535-6.324-6.75-3.49-1.952-7.266-3.549-8.39-3.549-1.124 0-4.681 1.961-7.904 4.358m-200.283 4.719c-1.692 1.692-3.077 3.91-3.077 4.927 0 3.933 8.041 7.53 11.671 5.221 1.942-1.236 2.591-5.9 1.347-9.672-.979-2.964-1.645-3.553-4.019-3.553-1.844 0-3.928 1.083-5.922 3.077m-26.112 10.376l-8.534 4.352.713 7.848c.393 4.316.746 9.979.785 12.584.067 4.445-.169 4.889-3.808 7.186-4.803 3.033-9.121 11.146-9.121 17.139 0 2.775 1.184 6.537 3.542 11.25 5.092 10.179 9.071 10.753 11.365 1.642.821-3.26 2.89-6.404 7.571-11.505 7.181-7.825 15.664-20.171 20.485-29.815 2.79-5.579 3.04-6.714 2.021-9.172-1.186-2.863-14.099-16.003-15.637-15.911-.466.027-4.688 2.009-9.382 4.402m253.851 9.204c-10.735 13.235-9.679 12.561-19.106 12.187l-8.21-.326-3.828 11.462-3.829 11.463 5.861 5.528c3.223 3.041 9.904 8.943 14.847 13.116 6.462 5.456 10.626 10.026 14.825 16.272 3.212 4.777 7.703 10.723 9.982 13.214 4 4.373 4.219 4.473 6.398 2.917 1.24-.886 2.925-2.907 3.744-4.491 1.363-2.635 1.235-4.21-1.505-18.526-1.647-8.606-2.995-17.788-2.995-20.404 0-6.653 3.38-16.037 6.869-19.069 1.582-1.375 3.793-4.314 4.912-6.53 3.055-6.049 5.592-15.497 4.464-16.625-.931-.931-16.547-5.889-22.929-7.281-3.038-.662-3.473-.337-9.5 7.093m-110.764-3.212c-1.703 1.813-2.129 3.112-1.648 5.03.856 3.408 22.842 25.519 28.596 28.757 6.554 3.689 12.1 4.268 16.991 1.772 4.384-2.236 6.982-2.578 11.588-1.526 2.882.659 3.554.191 10.5-7.3 4.082-4.403 8.221-9.371 9.198-11.041 1.731-2.958 1.724-3.066-.27-4.133-5.752-3.079-17.574-5.004-30.723-5.004-13.236 0-13.557-.054-26.73-4.5-7.334-2.475-13.755-4.5-14.27-4.5-.514 0-1.969 1.1-3.232 2.445m-86.385 11.034c-5.237 4.663-9.822 8.962-10.188 9.554-.365.592 1.74 5.214 4.678 10.272l5.343 9.195-.319 21.713-.32 21.713 4.729 11.077c2.601 6.092 5.028 11.261 5.393 11.487.676.417 32.37-32.87 39.98-41.99 4.907-5.88 7.688-10.963 9.693-17.713 2.023-6.811 4.096-8.546 11.166-9.346 8.813-.997 8.656-.75 7.282-11.466-1.525-11.889-3.114-15.669-7.318-17.401-4.319-1.779-16.589-3.321-36.286-4.56-25.879-1.628-22.875-2.291-33.833 7.465M472.321 614.75c.335 4.263.874 11.575 1.199 16.25l.589 8.5-6.304 4.046c-4.066 2.608-6.417 4.818-6.621 6.22-.497 3.428 12.162 25.279 15.763 27.206 2.935 1.57 13.268 1.266 15.738-.464 1.171-.82 5.744-6.825 10.162-13.343l8.032-11.85-9.304-14.908c-10.93-17.513-16.048-23.6-22.664-26.952-7.202-3.65-7.287-3.581-6.59 5.295m104.884 11.927c-.712.286-3.292 3.513-5.734 7.171-2.441 3.659-6.801 8.472-9.688 10.696-3.708 2.857-5.695 5.281-6.766 8.256-1.936 5.374-3.671 6.508-16.214 10.603-19.204 6.269-20.3 7.006-22.206 14.943-.897 3.735.797 5.654 4.99 5.654 3.654 0 5.413 2.054 5.413 6.321 0 3.082 5.648 11.419 9.106 13.443 3.619 2.117 6.424 1.139 13.221-4.613 5.996-5.074 8.827-6.151 16.176-6.151 2.339 0 5.995-.705 8.125-1.567 5.318-2.152 16.372-9.651 16.372-11.107 0-.654-2.025-5.35-4.5-10.435-2.475-5.085-4.5-9.93-4.5-10.767 0-.836 1.182-5.369 2.626-10.072 3.483-11.344 3.649-18.601.483-21.165-2.299-1.862-4.372-2.225-6.904-1.21m120.004 6.389c-4.244.9-6.847 3.308-8.285 7.663-1.501 4.551-.801 8.272 3.125 16.608l3.221 6.837 6.404-6.337c7.187-7.112 8.042-9.084 6.303-14.534-3.221-10.097-4.717-11.519-10.768-10.237m43.383 4.196c-1.705 1.289-1.815 2.123-1.039 7.84 1.087 8.002 1.08 22.133-.016 31.703-.753 6.573-.608 7.763 1.443 11.87l2.28 4.564-2.187 20.131-2.187 20.13 3.307 2.852c1.819 1.568 5.983 5.11 9.253 7.87l5.947 5.019 6.89-.493c4.117-.295 7.478-1.081 8.35-1.952.802-.802 2.34-6.372 3.418-12.377 2.146-11.95 3.103-13.419 8.743-13.419 3.957 0 17.712-4.475 27.456-8.932l6.75-3.088v-7.911c0-8.901.897-8.038-10-9.612-6.699-.967-8.748-2.794-12.594-11.232-1.92-4.214-4.26-8.528-5.199-9.586-.939-1.059-6.703-5.634-12.809-10.167-6.367-4.726-12.339-10.052-14-12.485-6.655-9.746-8.31-10.994-15.398-11.606-4.813-.416-6.995-.187-8.408.881M438 639.24c-14.795 6.536-20.651 9.835-22.216 12.514-.944 1.617-2.783 7.06-4.088 12.097-1.305 5.038-2.707 9.494-3.117 9.904-.409.41-3.515.97-6.903 1.245-5.537.45-6.294.783-7.495 3.299-.736 1.539-1.414 5.52-1.509 8.845l-.172 6.046 6.223 5.855c4.263 4.011 7.352 6.066 9.807 6.527 4.625.867 5.894 3.019 7.919 13.428 1.844 9.482 6.977 24.747 14.093 41.907l4.73 11.408-.155 11.092c-.127 9.055.319 12.915 2.43 21.014 3.414 13.096 5.531 17.068 10.427 19.566 5.856 2.987 7.617 2.619 10.692-2.237 3.936-6.218 16.88-33.315 19.108-40.002 1.914-5.744 1.914-5.772-.386-19.386-3.828-22.664-4.211-24.081-6.687-24.745-1.211-.324-3.166-.596-4.346-.603-5.134-.033-15.212-4.119-19.148-7.765l-4.048-3.749 8.362-27.431 8.362-27.432-8.583-16.318c-4.721-8.976-9.082-16.289-9.692-16.251-.609.037-2.233.564-3.608 1.172m283.934 16.815c-17.323 23.159-19.156 26.621-18.832 35.566.129 3.544-.179 6.809-.684 7.256-.505.447-3.843 1.856-7.418 3.132-12.068 4.306-14 5.603-14 9.401 0 5.393 2.451 7.286 13 10.039 15.681 4.091 28.866 6.692 32.25 6.362l3.189-.311 3.94-13.807 3.94-13.807-5.188-5.253-5.188-5.254 2.076-20.825c1.141-11.454 1.94-21.527 1.775-22.384-.176-.918-3.823 3.151-8.86 9.885m-54.597 11.369c-17.529 8.161-28.482 18.959-26.714 26.334 1.452 6.057 3.453 8.383 9.697 11.273 11.159 5.165 10.439 5.368 18.431-5.209C678.366 687.095 680 683.569 680 675.54c0-5.207-.408-6.948-2-8.54-2.58-2.58-4.364-2.509-10.663.424m-204.054 35.76L450.214 719.5l4.093 4.242c4.898 5.076 7.536 5.712 18.187 4.386 10.004-1.245 11.168-2.445 15.65-16.118l3.296-10.054-7.544-7.544-7.544-7.544-13.069 16.316M499 696.42c0 .231-1.132 5.655-2.515 12.053-2.855 13.206-3.456 22.652-1.585 24.906.69.831 3.357 2.212 5.927 3.068 2.57.856 7.373 3.354 10.673 5.552 3.3 2.197 6.511 3.996 7.136 3.998.625.002 4.225-2.882 8-6.408l6.864-6.412-2.5-4.817c-3.833-7.386-32-35.5-32-31.94m85.946 7.418c-2.445 1.561-6.359 4.926-8.696 7.478-3.776 4.122-4.25 5.179-4.25 9.48 0 10.089 3.576 17.172 11.522 22.822 2.781 1.978 2.901 2.325 1.815 5.25L584.174 752l6.163-.022c10.123-.036 14.726-3.13 27.448-18.447l4.127-4.969-5.206-2.092c-6.003-2.412-9.185-6.375-10.234-12.743-1.279-7.769-2.945-10.487-7.142-11.652-6.122-1.7-9.634-1.27-14.384 1.763m-33.963 4.796c-4.163 4.517-4.23 4.703-3.721 10.321.286 3.147 1.131 6.733 1.879 7.97 1.594 2.637 12.453 8.444 14.001 7.487 3.563-2.202 5.16-15.994 2.457-21.221-.771-1.491-3.421-4.161-5.889-5.933l-4.488-3.223-4.239 4.599m98 7.347c-10.89.878-13.821 2.319-17.118 8.417-4.777 8.836-5.431 12.021-3.394 16.537 3.087 6.846 5.58 8.41 14.643 9.189 5.658.486 8.622 1.232 10.056 2.53 1.118 1.012 4.104 6.116 6.635 11.343 4.012 8.285 4.567 10.208 4.327 15.003a807.283 807.283 0 00-.453 10.792l-.179 5.291 14.409 6.866c7.924 3.777 14.974 6.649 15.665 6.384 2.395-.919 6.349-7.856 7.315-12.833.533-2.75 1.224-10.887 1.536-18.082l.566-13.082-11.746-7.331c-6.46-4.031-13.207-8.405-14.995-9.718l-3.25-2.389-.014-12.699c-.019-17.894.306-17.231-8.353-17.052-3.923.081-10.966.457-15.65.834m48.215 13.649c-1.996 3.729-2.518 11.232-.95 13.626.812 1.239 6.263 4.863 12.114 8.052 11.878 6.474 11.588 5.961 9.118 16.192-2.245 9.299-1.881 15.193 1.293 20.915 1.5 2.704 3.435 5.351 4.299 5.883 1.157.712 5.053-.555 14.75-4.796L751 783.739v-24.726l-6.912-7.844c-14.846-16.847-23.699-22.245-37.693-22.979-7.24-.38-8.313-.212-9.197 1.44m95.802.55c-4.684 1.339-5.68 2.298-6.407 6.177-.339 1.808-1.736 4.804-3.105 6.659-3.172 4.299-3.134 4.992.657 12.104 5.54 10.395 6.303 10.881 17.057 10.874l9.298-.005 5.996-11.415c3.298-6.278 5.773-11.582 5.5-11.787-.273-.205-3.196-2.635-6.496-5.401-3.3-2.765-7.113-5.783-8.473-6.707-2.723-1.85-8.57-2.058-14.027-.499m-308.406 16.498c-2.391 7.018-2.043 8.88 2.604 13.921 6.664 7.229 11.945 9.091 16.579 5.844 1.828-1.28 2.223-2.511 2.223-6.923 0-4.386-.499-5.959-2.73-8.611-3.652-4.34-11.023-8.909-14.372-8.909-2.333 0-2.932.65-4.304 4.678m50.731 6.572C516.971 773.722 508 784.723 508 786.76c0 .837 24.829 19.829 32.307 24.712 2.805 1.831 2.811 1.83 10.264-2.07 5.799-3.035 7.643-3.61 8.292-2.588.458.722 1.394 5.222 2.079 10 1.971 13.76 1.155 12.581 11.391 16.453 15.189 5.745 14.302 5.82 17.597-1.486 2.887-6.4 11.07-32.4 11.07-35.171 0-.839-5.785-10.274-12.855-20.966-7.07-10.693-13.134-20.837-13.475-22.542-.408-2.04-1.725-3.773-3.853-5.067-3.307-2.011-18.632-6.035-22.985-6.035-1.819 0-4.925 2.794-12.507 11.25m71.802 1.461c-3.917 2.04-8.242 4.628-9.61 5.75l-2.488 2.039 2.792 8.229c3.057 9.014 5.771 12.632 10.851 14.469 3.809 1.378 3.877 1.78 2.186 12.894-1.081 7.102-1.013 7.878 1.054 12 1.215 2.425 3.474 5.951 5.019 7.837l2.81 3.429 5.529-5.229c5.972-5.648 7.027-7.618 8.728-16.298.61-3.118 3.111-9.59 5.556-14.382 5.639-11.05 6.088-17.113 1.581-21.322-1.575-1.472-5.513-3.504-8.75-4.515-3.237-1.012-8.369-3.363-11.405-5.226-3.036-1.862-5.792-3.386-6.125-3.386-.334 0-3.811 1.67-7.728 3.711m167.859 22.586c-2.467 1.314-10.933 6.735-18.813 12.047-7.881 5.311-15.531 9.902-17 10.202-6.65 1.356-11.138 2.918-17.173 5.977-12.314 6.241-27.993 18.728-29.508 23.502-.426 1.342 1.879 5.173 8.078 13.426 4.771 6.352 9.278 11.549 10.015 11.549 4.375 0 12.986-4.668 19.302-10.465 9.734-8.932 16.037-9.951 31.613-5.111 2.75.855 5.526 1.559 6.17 1.565 1.459.014 8.779-7.667 18.824-19.752l7.699-9.263-.626-6.237c-1.679-16.702-2.853-22.866-4.953-25.994-2.871-4.275-7.413-4.757-13.628-1.446m-287.815 6.453c-.495.962-1.154 5.867-1.464 10.9-.897 14.545-1.685 15.606-25.409 34.208l-13.202 10.352 5.061 7.145c2.784 3.93 6.183 8.812 7.555 10.849 2.84 4.22 2.328 4.1 24.788 5.804 19.946 1.513 33.2 2.894 39.192 4.081 4.602.912 5.306 1.391 6.194 4.22.551 1.755 1.14 4.27 1.308 5.589.168 1.319 1.077 2.881 2.02 3.472 2.907 1.822 7.328-3.487 10.277-12.342 1.402-4.21 4.19-10.278 6.196-13.484 2.005-3.207 3.646-7.083 3.646-8.614 0-3.108-4.853-11.644-10.66-18.748-4.986-6.101-10.705-9.365-24.239-13.839l-11.067-3.657-5.726-11.29c-5.108-10.071-10-16.396-12.683-16.396-.488 0-1.293.788-1.787 1.75m163.824 27.988c-7.771 10.837-12.602 22.875-23.042 57.418l-6.024 19.932 9.532 12.285c5.242 6.757 10.566 12.839 11.831 13.515 1.268.679 4.716 1.092 7.693.921 5.362-.307 5.418-.345 9.455-6.269 2.233-3.279 5.635-6.973 7.56-8.209 7.749-4.977 7.508-4.605 7.393-11.469-.059-3.499-1.507-12.074-3.218-19.056l-3.11-12.693 4.456-14.807c2.451-8.143 4.455-15.481 4.455-16.306-.001-.825-4.332-5.325-9.624-10-14.116-12.47-12.532-11.99-17.357-5.262M594 845.658c-5.913 3.467-8.084 5.398-7.369 6.553.682 1.104 20.247 16.789 20.942 16.789.628 0 8.427-12.099 8.427-13.074 0-1.12-14.91-12.928-16.309-12.917-.655.006-3.216 1.197-5.691 2.649m91.897 9.092c-4.728 5.053-11.207 13.286-10.759 13.671.199.172 6.437 4.905 13.862 10.519l13.5 10.208 3.319-3.821c4.356-5.013 9.181-12.341 9.181-13.942 0-2.114-9.376-13.664-13.91-17.135-6.064-4.642-10.519-4.495-15.193.5m56.603-1.541c-4.796 1.681-6.271 3.566-9.534 12.178-2.939 7.76-6.558 12.613-9.405 12.613-.731 0-2.956 1.801-4.945 4.003-3.098 3.429-3.613 4.683-3.592 8.75.031 6.312 3.325 21.041 5.08 22.717.768.734 3.261 1.635 5.542 2.002 3.864.623 4.313.444 6.624-2.652 3.516-4.709 14.271-22.787 19.524-32.82 4.322-8.254 4.435-8.702 3.912-15.5-.296-3.85-1.015-8.237-1.597-9.75-.906-2.352-1.606-2.739-4.834-2.671-2.076.043-5.125.552-6.775 1.13m-173.571 7.506c-1.336.91-7.942 6.158-14.679 11.662L542 882.384l.024 5.558c.013 3.057.433 10.843.933 17.303 1.059 13.671 2.842 17.877 9.385 22.131 8.39 5.455 12.503 2.297 17.236-13.232 3.352-10.999 4.43-13.027 10.46-19.686l4.944-5.46-2.393-6.249c-3.202-8.362-6.996-16.725-9.324-20.554-1.856-3.051-1.971-3.09-4.336-1.48m32.236 23.749c-3.459 3.94-15.165 26.73-15.165 29.525 0 1.915 5.476 7.175 13.28 12.758l4.539 3.247 6.221-14.747c10.593-25.107 10.701-25.706 5.56-30.847-2.732-2.732-4.185-3.4-7.396-3.4-3.308 0-4.521.597-7.039 3.464M683.04 902c-.572 2.2-1.539 5.902-2.148 8.227-1.427 5.444-4.712 10.074-15.448 21.773-13.845 15.088-13.972 15.294-12.477 20.287 1.835 6.13 7.379 16.75 13.707 26.259 5.046 7.582 5.607 8.988 6.397 16.034.647 5.772 1.421 8.314 3.06 10.059 2.666 2.838 16.3 12.361 17.697 12.361 1.174 0 7.143-7.989 9.661-12.929 1.178-2.312 1.972-7.103 2.438-14.71.764-12.484.022-10.932 10.816-22.623 7.208-7.806 13.115-18.747 13.956-25.848.569-4.803.473-5.036-3.749-9.052-3.792-3.608-8.851-6.417-19.254-10.692-2.079-.854-3.584-2.898-5.818-7.899C694.255 896.18 695.726 898 689.553 898h-5.473l-1.04 4m-64.936 16.25c-2.574 6.836-7.566 20.882-18.613 52.365l-12.32 35.116 6.307 30.384c5.621 27.077 7.42 35.17 9.138 41.101.544 1.878 15.477 9.784 18.479 9.784 2.624 0 4.558-4.278 12.89-28.5 8.865-25.774 10.715-29.361 17.59-34.096 6.941-4.781 7.803-7.111 7.207-19.492-.401-8.314-.852-10.497-2.634-12.724-8.969-11.215-11.487-20.581-11.403-42.415.034-8.65.368-17.959.743-20.686l.682-4.959-12.712-4.064c-6.992-2.235-13.117-4.064-13.61-4.064-.494 0-1.279 1.013-1.744 2.25M567.5 937.32c-3.927 2.246-3.998 2.387-3.889 7.734.065 3.159 1.115 7.965 2.501 11.446 2.189 5.498 2.747 6.113 6.663 7.352 6.644 2.103 8.88 1.048 10.689-5.044 2.035-6.85 1.907-12.393-.401-17.477-3.082-6.79-8.336-8.143-15.563-4.011m16.47 31.93c-2.617 4.251-4.25 9.724-3.817 12.794.278 1.964 1.013 2.52 3.668 2.775 1.862.178 4.388-.381 5.75-1.273 2.006-1.315 2.428-2.415 2.425-6.319-.003-4.741-2.89-11.227-4.996-11.227-.566 0-1.93 1.462-3.03 3.25" fill="undefined" fill-rule="evenodd"/></svg>