<?xml version="1.0" encoding="UTF-8" standalone="no"?>
<svg
   xmlns:dc="http://purl.org/dc/elements/1.1/"
   xmlns:cc="http://creativecommons.org/ns#"
   xmlns:rdf="http://www.w3.org/1999/02/22-rdf-syntax-ns#"
   xmlns:svg="http://www.w3.org/2000/svg"
   xmlns="http://www.w3.org/2000/svg"
   xmlns:sodipodi="http://sodipodi.sourceforge.net/DTD/sodipodi-0.dtd"
   xmlns:inkscape="http://www.inkscape.org/namespaces/inkscape"
   width="13.241889mm"
   height="11.152427mm"
   viewBox="0 0 13.241889 11.152427"
   version="1.1"
   id="svg4696"
   inkscape:version="0.92.3 (2405546, 2018-03-11)"
   sodipodi:docname="camera.svg">
  <defs
     id="defs4690" />
  <sodipodi:namedview
     id="base"
     pagecolor="#ffffff"
     bordercolor="#666666"
     borderopacity="1.0"
     inkscape:pageopacity="0.0"
     inkscape:pageshadow="2"
     inkscape:zoom="3.959798"
     inkscape:cx="142.03343"
     inkscape:cy="-11.588326"
     inkscape:document-units="mm"
     inkscape:current-layer="layer1"
     showgrid="false"
     fit-margin-top="0"
     fit-margin-left="0"
     fit-margin-right="0"
     fit-margin-bottom="0"
     inkscape:window-width="1920"
     inkscape:window-height="1031"
     inkscape:window-x="0"
     inkscape:window-y="25"
     inkscape:window-maximized="1" />
  <metadata
     id="metadata4693">
    <rdf:RDF>
      <cc:Work
         rdf:about="">
        <dc:format>image/svg+xml</dc:format>
        <dc:type
           rdf:resource="http://purl.org/dc/dcmitype/StillImage" />
        <dc:title></dc:title>
      </cc:Work>
    </rdf:RDF>
  </metadata>
  <g
     inkscape:label="Ebene 1"
     inkscape:groupmode="layer"
     id="layer1"
     transform="translate(65.585229,-67.661882)">
    <path
       inkscape:connector-curvature="0"
       id="path4669"
       d="m -56.471696,73.704296 c 0.06139,1.616219 -1.704367,2.915239 -3.228776,2.380951 -1.561135,-0.419305 -2.283105,-2.489266 -1.320442,-3.788185 0.861946,-1.368036 3.05265,-1.445612 4.009213,-0.141982 0.347853,0.436045 0.54139,0.991499 0.540005,1.549216 z"
       style="fill:none;stroke:#1a5fb4;stroke-width:0.93000001;stroke-miterlimit:4;stroke-dasharray:none;stroke-opacity:1" />
    <path
       inkscape:connector-curvature="0"
       id="path4671"
       d="m -61.768583,69.669691 c 0.302753,-0.443691 0.575693,-0.919084 0.89701,-1.343044 0.187604,-0.11948 0.375576,-0.237568 0.607803,-0.188547 h 2.838096 c 0.216245,0.109722 0.455934,0.19343 0.551271,0.437323 0.238496,0.364751 0.476992,0.729509 0.715489,1.094268 0.627747,0.01328 1.260984,-0.02691 1.88519,0.02084 0.658801,0.102083 1.342723,0.499879 1.465272,1.205716 -0.0057,2.04589 -0.01114,4.091772 -0.01678,6.137662 -0.170436,0.684207 -0.81563,1.194173 -1.486645,1.315395 h -9.475024 c -0.874384,-0.01521 -1.409789,-0.939415 -1.323831,-1.738983 v -5.596892 c 0.07191,-0.673892 0.571029,-1.285028 1.268308,-1.347213 0.688398,-0.02898 1.383524,0.007 2.073841,0.0035 z"
       style="fill:none;stroke:#1a5fb4;stroke-width:0.93000001;stroke-linecap:butt;stroke-linejoin:miter;stroke-miterlimit:4;stroke-dasharray:none;stroke-opacity:1"
       sodipodi:nodetypes="cccccccccccccccc" />
  </g>
</svg>
